G04*
G04 #@! TF.GenerationSoftware,Altium Limited,Altium Designer,19.1.8 (144)*
G04*
G04 Layer_Physical_Order=2*
G04 Layer_Color=16711680*
%FSLAX25Y25*%
%MOIN*%
G70*
G01*
G75*
%ADD11C,0.00600*%
%ADD12C,0.01000*%
%ADD45C,0.02500*%
%ADD48C,0.05906*%
%ADD49R,0.05906X0.05906*%
%ADD50R,0.06299X0.06299*%
%ADD51C,0.06299*%
%ADD52C,0.05315*%
%ADD53R,0.05315X0.05315*%
%ADD54C,0.05512*%
%ADD55R,0.05315X0.05315*%
%ADD56C,0.04724*%
%ADD57R,0.06299X0.06299*%
%ADD58C,0.05000*%
%ADD59C,0.03000*%
%ADD60C,0.04000*%
G36*
X325500Y61500D02*
X269000Y5000D01*
X29500D01*
Y246000D01*
Y249500D01*
X325500D01*
Y61500D01*
D02*
G37*
%LPC*%
G36*
X249953Y246453D02*
X246500D01*
Y243000D01*
X249953D01*
Y246453D01*
D02*
G37*
G36*
X212453D02*
X209000D01*
Y243000D01*
X212453D01*
Y246453D01*
D02*
G37*
G36*
X245500D02*
X242047D01*
Y243000D01*
X245500D01*
Y246453D01*
D02*
G37*
G36*
X208000D02*
X204547D01*
Y243000D01*
X208000D01*
Y246453D01*
D02*
G37*
G36*
X249953Y242000D02*
X246500D01*
Y238547D01*
X249953D01*
Y242000D01*
D02*
G37*
G36*
X245500D02*
X242047D01*
Y238547D01*
X245500D01*
Y242000D01*
D02*
G37*
G36*
X212453D02*
X209000D01*
Y238547D01*
X212453D01*
Y242000D01*
D02*
G37*
G36*
X208000D02*
X204547D01*
Y238547D01*
X208000D01*
Y242000D01*
D02*
G37*
G36*
X236000Y246487D02*
X234968Y246351D01*
X234007Y245953D01*
X233181Y245319D01*
X232547Y244493D01*
X232149Y243532D01*
X232013Y242500D01*
X232149Y241468D01*
X232341Y241004D01*
X199919Y208581D01*
X199587Y208085D01*
X199471Y207500D01*
Y184634D01*
X195322Y180485D01*
X195000Y180549D01*
X194025Y180355D01*
X193198Y179802D01*
X192645Y178975D01*
X192451Y178000D01*
X192645Y177024D01*
X193198Y176198D01*
X194025Y175645D01*
X195000Y175451D01*
X195975Y175645D01*
X196802Y176198D01*
X197355Y177024D01*
X197549Y178000D01*
X197485Y178322D01*
X202081Y182919D01*
X202413Y183415D01*
X202529Y184000D01*
Y206867D01*
X234504Y238841D01*
X234968Y238649D01*
X236000Y238513D01*
X237032Y238649D01*
X237993Y239047D01*
X238819Y239681D01*
X239453Y240507D01*
X239851Y241468D01*
X239987Y242500D01*
X239851Y243532D01*
X239453Y244493D01*
X238819Y245319D01*
X237993Y245953D01*
X237032Y246351D01*
X236000Y246487D01*
D02*
G37*
G36*
X198500D02*
X197468Y246351D01*
X196507Y245953D01*
X195681Y245319D01*
X195047Y244493D01*
X194649Y243532D01*
X194513Y242500D01*
X194649Y241468D01*
X195047Y240507D01*
X195681Y239681D01*
X196507Y239047D01*
X197468Y238649D01*
X198500Y238513D01*
X199532Y238649D01*
X200493Y239047D01*
X201319Y239681D01*
X201953Y240507D01*
X202351Y241468D01*
X202487Y242500D01*
X202351Y243532D01*
X201953Y244493D01*
X201319Y245319D01*
X200493Y245953D01*
X199532Y246351D01*
X198500Y246487D01*
D02*
G37*
G36*
X305000Y239528D02*
X303917Y239385D01*
X302907Y238967D01*
X302041Y238302D01*
X301375Y237435D01*
X300957Y236426D01*
X300815Y235343D01*
X300957Y234259D01*
X301375Y233250D01*
X302041Y232383D01*
X302907Y231718D01*
X303917Y231300D01*
X305000Y231157D01*
X306083Y231300D01*
X307093Y231718D01*
X307960Y232383D01*
X308625Y233250D01*
X309043Y234259D01*
X309185Y235343D01*
X309043Y236426D01*
X308625Y237435D01*
X307960Y238302D01*
X307093Y238967D01*
X306083Y239385D01*
X305000Y239528D01*
D02*
G37*
G36*
X65992Y233650D02*
X62343D01*
Y230000D01*
X65992D01*
Y233650D01*
D02*
G37*
G36*
X61343D02*
X57693D01*
Y230000D01*
X61343D01*
Y233650D01*
D02*
G37*
G36*
X152157Y232623D02*
Y229500D01*
X155281D01*
X155221Y229955D01*
X154852Y230844D01*
X154266Y231609D01*
X153502Y232195D01*
X152612Y232563D01*
X152157Y232623D01*
D02*
G37*
G36*
X151157D02*
X150703Y232563D01*
X149813Y232195D01*
X149049Y231609D01*
X148463Y230844D01*
X148094Y229955D01*
X148034Y229500D01*
X151157D01*
Y232623D01*
D02*
G37*
G36*
X155281Y228500D02*
X152157D01*
Y225377D01*
X152612Y225437D01*
X153502Y225805D01*
X154266Y226392D01*
X154852Y227155D01*
X155221Y228045D01*
X155281Y228500D01*
D02*
G37*
G36*
X151157D02*
X148034D01*
X148094Y228045D01*
X148463Y227155D01*
X149049Y226392D01*
X149813Y225805D01*
X150703Y225437D01*
X151157Y225377D01*
Y228500D01*
D02*
G37*
G36*
X65992Y229000D02*
X62343D01*
Y225350D01*
X65992D01*
Y229000D01*
D02*
G37*
G36*
X61343D02*
X57693D01*
Y225350D01*
X61343D01*
Y229000D01*
D02*
G37*
G36*
X175000Y232658D02*
X167685D01*
Y225342D01*
X175000D01*
Y232658D01*
D02*
G37*
G36*
X42158Y233685D02*
X41074Y233543D01*
X40065Y233125D01*
X39198Y232459D01*
X38533Y231593D01*
X38115Y230583D01*
X37972Y229500D01*
X38115Y228417D01*
X38533Y227407D01*
X39198Y226540D01*
X40065Y225875D01*
X41074Y225457D01*
X42158Y225315D01*
X43241Y225457D01*
X44250Y225875D01*
X45117Y226540D01*
X45782Y227407D01*
X46200Y228417D01*
X46343Y229500D01*
X46200Y230583D01*
X45782Y231593D01*
X45117Y232459D01*
X44250Y233125D01*
X43241Y233543D01*
X42158Y233685D01*
D02*
G37*
G36*
X80500Y221030D02*
X79586Y220910D01*
X78735Y220557D01*
X78004Y219996D01*
X77443Y219265D01*
X77090Y218414D01*
X76970Y217500D01*
X77090Y216586D01*
X77443Y215735D01*
X78004Y215004D01*
X78735Y214443D01*
X79586Y214090D01*
X80500Y213970D01*
X81414Y214090D01*
X82265Y214443D01*
X82996Y215004D01*
X83557Y215735D01*
X83910Y216586D01*
X84030Y217500D01*
X83910Y218414D01*
X83557Y219265D01*
X82996Y219996D01*
X82265Y220557D01*
X81414Y220910D01*
X80500Y221030D01*
D02*
G37*
G36*
X184550Y204514D02*
Y201550D01*
X187514D01*
X187460Y201964D01*
X187107Y202815D01*
X186546Y203546D01*
X185815Y204107D01*
X184964Y204460D01*
X184550Y204514D01*
D02*
G37*
G36*
X183550D02*
X183136Y204460D01*
X182285Y204107D01*
X181554Y203546D01*
X180993Y202815D01*
X180640Y201964D01*
X180586Y201550D01*
X183550D01*
Y204514D01*
D02*
G37*
G36*
X217000Y203464D02*
Y200500D01*
X219964D01*
X219910Y200914D01*
X219557Y201765D01*
X218996Y202496D01*
X218265Y203057D01*
X217414Y203410D01*
X217000Y203464D01*
D02*
G37*
G36*
X216000D02*
X215586Y203410D01*
X214735Y203057D01*
X214004Y202496D01*
X213443Y201765D01*
X213090Y200914D01*
X213036Y200500D01*
X216000D01*
Y203464D01*
D02*
G37*
G36*
X153157Y202623D02*
Y199500D01*
X156281D01*
X156221Y199955D01*
X155852Y200845D01*
X155266Y201609D01*
X154502Y202195D01*
X153612Y202563D01*
X153157Y202623D01*
D02*
G37*
G36*
X152157D02*
X151703Y202563D01*
X150813Y202195D01*
X150049Y201609D01*
X149463Y200845D01*
X149094Y199955D01*
X149034Y199500D01*
X152157D01*
Y202623D01*
D02*
G37*
G36*
X144343Y202623D02*
Y199500D01*
X147466D01*
X147406Y199955D01*
X147037Y200845D01*
X146451Y201608D01*
X145687Y202195D01*
X144797Y202563D01*
X144343Y202623D01*
D02*
G37*
G36*
X143342D02*
X142888Y202563D01*
X141998Y202195D01*
X141234Y201608D01*
X140648Y200845D01*
X140279Y199955D01*
X140219Y199500D01*
X143342D01*
Y202623D01*
D02*
G37*
G36*
X187514Y200550D02*
X184550D01*
Y197586D01*
X184964Y197640D01*
X185815Y197993D01*
X186546Y198554D01*
X187107Y199285D01*
X187460Y200136D01*
X187514Y200550D01*
D02*
G37*
G36*
X183550D02*
X180586D01*
X180640Y200136D01*
X180993Y199285D01*
X181554Y198554D01*
X182285Y197993D01*
X183136Y197640D01*
X183550Y197586D01*
Y200550D01*
D02*
G37*
G36*
X219964Y199500D02*
X217000D01*
Y196536D01*
X217414Y196590D01*
X218265Y196943D01*
X218996Y197504D01*
X219557Y198235D01*
X219910Y199086D01*
X219964Y199500D01*
D02*
G37*
G36*
X216000D02*
X213036D01*
X213090Y199086D01*
X213443Y198235D01*
X214004Y197504D01*
X214735Y196943D01*
X215586Y196590D01*
X216000Y196536D01*
Y199500D01*
D02*
G37*
G36*
X156281Y198500D02*
X153157D01*
Y195377D01*
X153612Y195437D01*
X154502Y195805D01*
X155266Y196391D01*
X155852Y197155D01*
X156221Y198045D01*
X156281Y198500D01*
D02*
G37*
G36*
X152157D02*
X149034D01*
X149094Y198045D01*
X149463Y197155D01*
X150049Y196391D01*
X150813Y195805D01*
X151703Y195437D01*
X152157Y195377D01*
Y198500D01*
D02*
G37*
G36*
X147466Y198500D02*
X144343D01*
Y195377D01*
X144797Y195437D01*
X145687Y195805D01*
X146451Y196391D01*
X147037Y197155D01*
X147406Y198045D01*
X147466Y198500D01*
D02*
G37*
G36*
X143342D02*
X140219D01*
X140279Y198045D01*
X140648Y197155D01*
X141234Y196391D01*
X141998Y195805D01*
X142888Y195437D01*
X143342Y195377D01*
Y198500D01*
D02*
G37*
G36*
X127815Y202658D02*
X120500D01*
Y195343D01*
X127815D01*
Y202658D01*
D02*
G37*
G36*
X176000Y202658D02*
X168685D01*
Y195343D01*
X176000D01*
Y202658D01*
D02*
G37*
G36*
X101500Y201788D02*
X100520Y201659D01*
X99606Y201281D01*
X98821Y200679D01*
X98219Y199894D01*
X97841Y198980D01*
X97712Y198000D01*
X97841Y197020D01*
X98219Y196106D01*
X98821Y195321D01*
X99606Y194719D01*
X100520Y194341D01*
X101500Y194212D01*
X102480Y194341D01*
X103394Y194719D01*
X104179Y195321D01*
X104781Y196106D01*
X105159Y197020D01*
X105288Y198000D01*
X105159Y198980D01*
X104781Y199894D01*
X104179Y200679D01*
X103394Y201281D01*
X102480Y201659D01*
X101500Y201788D01*
D02*
G37*
G36*
X71500D02*
X70520Y201659D01*
X69606Y201281D01*
X68821Y200679D01*
X68219Y199894D01*
X67841Y198980D01*
X67712Y198000D01*
X67841Y197020D01*
X68219Y196106D01*
X68821Y195321D01*
X69606Y194719D01*
X70520Y194341D01*
X71500Y194212D01*
X72480Y194341D01*
X73394Y194719D01*
X74179Y195321D01*
X74781Y196106D01*
X75159Y197020D01*
X75288Y198000D01*
X75159Y198980D01*
X74781Y199894D01*
X74179Y200679D01*
X73394Y201281D01*
X72480Y201659D01*
X71500Y201788D01*
D02*
G37*
G36*
X42000Y192722D02*
Y189500D01*
X45222D01*
X45159Y189980D01*
X44781Y190894D01*
X44179Y191679D01*
X43394Y192281D01*
X42480Y192659D01*
X42000Y192722D01*
D02*
G37*
G36*
X41000D02*
X40519Y192659D01*
X39606Y192281D01*
X38821Y191679D01*
X38219Y190894D01*
X37841Y189980D01*
X37778Y189500D01*
X41000D01*
Y192722D01*
D02*
G37*
G36*
X45222Y188500D02*
X42000D01*
Y185277D01*
X42480Y185341D01*
X43394Y185719D01*
X44179Y186321D01*
X44781Y187106D01*
X45159Y188020D01*
X45222Y188500D01*
D02*
G37*
G36*
X41000D02*
X37778D01*
X37841Y188020D01*
X38219Y187106D01*
X38821Y186321D01*
X39606Y185719D01*
X40519Y185341D01*
X41000Y185277D01*
Y188500D01*
D02*
G37*
G36*
X71500Y192788D02*
X70520Y192659D01*
X69606Y192281D01*
X68821Y191679D01*
X68219Y190894D01*
X67841Y189980D01*
X67712Y189000D01*
X67841Y188020D01*
X68219Y187106D01*
X68821Y186321D01*
X69606Y185719D01*
X70520Y185341D01*
X71500Y185212D01*
X72480Y185341D01*
X73394Y185719D01*
X74179Y186321D01*
X74781Y187106D01*
X75159Y188020D01*
X75288Y189000D01*
X75159Y189980D01*
X74781Y190894D01*
X74179Y191679D01*
X73394Y192281D01*
X72480Y192659D01*
X71500Y192788D01*
D02*
G37*
G36*
X305500Y189528D02*
X304417Y189385D01*
X303407Y188967D01*
X302540Y188302D01*
X301875Y187435D01*
X301457Y186426D01*
X301315Y185343D01*
X301457Y184259D01*
X301875Y183250D01*
X302540Y182383D01*
X303407Y181718D01*
X304417Y181300D01*
X305500Y181157D01*
X306583Y181300D01*
X307593Y181718D01*
X308459Y182383D01*
X309125Y183250D01*
X309543Y184259D01*
X309685Y185343D01*
X309543Y186426D01*
X309125Y187435D01*
X308459Y188302D01*
X307593Y188967D01*
X306583Y189385D01*
X305500Y189528D01*
D02*
G37*
G36*
X154500Y188288D02*
X153519Y188159D01*
X152606Y187781D01*
X151821Y187179D01*
X151219Y186394D01*
X150841Y185480D01*
X150712Y184500D01*
X150841Y183519D01*
X151219Y182606D01*
X151821Y181821D01*
X152606Y181219D01*
X153519Y180841D01*
X154500Y180712D01*
X155481Y180841D01*
X156394Y181219D01*
X157179Y181821D01*
X157781Y182606D01*
X158159Y183519D01*
X158288Y184500D01*
X158159Y185480D01*
X157781Y186394D01*
X157179Y187179D01*
X156394Y187781D01*
X155481Y188159D01*
X154500Y188288D01*
D02*
G37*
G36*
X124500D02*
X123520Y188159D01*
X122606Y187781D01*
X121821Y187179D01*
X121219Y186394D01*
X120841Y185480D01*
X120712Y184500D01*
X120841Y183519D01*
X121219Y182606D01*
X121821Y181821D01*
X122606Y181219D01*
X123520Y180841D01*
X124500Y180712D01*
X125480Y180841D01*
X126394Y181219D01*
X127179Y181821D01*
X127781Y182606D01*
X128159Y183519D01*
X128288Y184500D01*
X128159Y185480D01*
X127781Y186394D01*
X127179Y187179D01*
X126394Y187781D01*
X125480Y188159D01*
X124500Y188288D01*
D02*
G37*
G36*
X82000Y180960D02*
Y178500D01*
X84460D01*
X84423Y178783D01*
X84121Y179513D01*
X83640Y180140D01*
X83013Y180621D01*
X82283Y180923D01*
X82000Y180960D01*
D02*
G37*
G36*
X81000D02*
X80717Y180923D01*
X79987Y180621D01*
X79360Y180140D01*
X78879Y179513D01*
X78577Y178783D01*
X78540Y178500D01*
X81000D01*
Y180960D01*
D02*
G37*
G36*
X42000Y179325D02*
Y176500D01*
X44825D01*
X44776Y176878D01*
X44437Y177696D01*
X43898Y178398D01*
X43196Y178937D01*
X42378Y179276D01*
X42000Y179325D01*
D02*
G37*
G36*
X41000D02*
X40622Y179276D01*
X39804Y178937D01*
X39102Y178398D01*
X38563Y177696D01*
X38224Y176878D01*
X38175Y176500D01*
X41000D01*
Y179325D01*
D02*
G37*
G36*
X84460Y177500D02*
X82000D01*
Y175040D01*
X82283Y175077D01*
X83013Y175380D01*
X83640Y175860D01*
X84121Y176487D01*
X84423Y177217D01*
X84460Y177500D01*
D02*
G37*
G36*
X81000D02*
X78540D01*
X78577Y177217D01*
X78879Y176487D01*
X79360Y175860D01*
X79987Y175380D01*
X80717Y175077D01*
X81000Y175040D01*
Y177500D01*
D02*
G37*
G36*
X44825Y175500D02*
X42000D01*
Y172675D01*
X42378Y172724D01*
X43196Y173063D01*
X43898Y173602D01*
X44437Y174304D01*
X44776Y175122D01*
X44825Y175500D01*
D02*
G37*
G36*
X41000D02*
X38175D01*
X38224Y175122D01*
X38563Y174304D01*
X39102Y173602D01*
X39804Y173063D01*
X40622Y172724D01*
X41000Y172675D01*
Y175500D01*
D02*
G37*
G36*
X71500Y179391D02*
X70622Y179276D01*
X69804Y178937D01*
X69102Y178398D01*
X68563Y177696D01*
X68224Y176878D01*
X68109Y176000D01*
X68224Y175122D01*
X68563Y174304D01*
X69102Y173602D01*
X69804Y173063D01*
X70622Y172724D01*
X71500Y172609D01*
X72378Y172724D01*
X73196Y173063D01*
X73898Y173602D01*
X74437Y174304D01*
X74776Y175122D01*
X74891Y176000D01*
X74776Y176878D01*
X74437Y177696D01*
X73898Y178398D01*
X73196Y178937D01*
X72378Y179276D01*
X71500Y179391D01*
D02*
G37*
G36*
X217500Y166964D02*
Y164000D01*
X220464D01*
X220410Y164414D01*
X220057Y165265D01*
X219496Y165996D01*
X218765Y166557D01*
X217914Y166910D01*
X217500Y166964D01*
D02*
G37*
G36*
X216500D02*
X216086Y166910D01*
X215235Y166557D01*
X214504Y165996D01*
X213943Y165265D01*
X213590Y164414D01*
X213536Y164000D01*
X216500D01*
Y166964D01*
D02*
G37*
G36*
X185000D02*
Y164000D01*
X187964D01*
X187910Y164414D01*
X187557Y165265D01*
X186996Y165996D01*
X186265Y166557D01*
X185414Y166910D01*
X185000Y166964D01*
D02*
G37*
G36*
X184000D02*
X183586Y166910D01*
X182735Y166557D01*
X182004Y165996D01*
X181443Y165265D01*
X181090Y164414D01*
X181036Y164000D01*
X184000D01*
Y166964D01*
D02*
G37*
G36*
X154000Y171288D02*
X153019Y171159D01*
X152106Y170781D01*
X151321Y170179D01*
X150719Y169394D01*
X150341Y168481D01*
X150212Y167500D01*
X150341Y166519D01*
X150719Y165606D01*
X151321Y164821D01*
X152106Y164219D01*
X153019Y163841D01*
X154000Y163712D01*
X154981Y163841D01*
X155894Y164219D01*
X156679Y164821D01*
X157281Y165606D01*
X157659Y166519D01*
X157788Y167500D01*
X157659Y168481D01*
X157281Y169394D01*
X156679Y170179D01*
X155894Y170781D01*
X154981Y171159D01*
X154000Y171288D01*
D02*
G37*
G36*
X124000D02*
X123020Y171159D01*
X122106Y170781D01*
X121321Y170179D01*
X120719Y169394D01*
X120341Y168481D01*
X120212Y167500D01*
X120341Y166519D01*
X120719Y165606D01*
X121321Y164821D01*
X122106Y164219D01*
X123020Y163841D01*
X124000Y163712D01*
X124980Y163841D01*
X125894Y164219D01*
X126679Y164821D01*
X127281Y165606D01*
X127659Y166519D01*
X127788Y167500D01*
X127659Y168481D01*
X127281Y169394D01*
X126679Y170179D01*
X125894Y170781D01*
X124980Y171159D01*
X124000Y171288D01*
D02*
G37*
G36*
X309650Y169807D02*
X301350D01*
Y161508D01*
X309650D01*
Y169807D01*
D02*
G37*
G36*
X220464Y163000D02*
X217500D01*
Y160036D01*
X217914Y160090D01*
X218765Y160443D01*
X219496Y161004D01*
X220057Y161735D01*
X220410Y162586D01*
X220464Y163000D01*
D02*
G37*
G36*
X216500D02*
X213536D01*
X213590Y162586D01*
X213943Y161735D01*
X214504Y161004D01*
X215235Y160443D01*
X216086Y160090D01*
X216500Y160036D01*
Y163000D01*
D02*
G37*
G36*
X187964D02*
X185000D01*
Y160036D01*
X185414Y160090D01*
X186265Y160443D01*
X186996Y161004D01*
X187557Y161735D01*
X187910Y162586D01*
X187964Y163000D01*
D02*
G37*
G36*
X184000D02*
X181036D01*
X181090Y162586D01*
X181443Y161735D01*
X182004Y161004D01*
X182735Y160443D01*
X183586Y160090D01*
X184000Y160036D01*
Y163000D01*
D02*
G37*
G36*
X162500Y162030D02*
X161586Y161910D01*
X160735Y161557D01*
X160004Y160996D01*
X159443Y160265D01*
X159090Y159414D01*
X158970Y158500D01*
X159090Y157586D01*
X159443Y156735D01*
X160004Y156004D01*
X160735Y155443D01*
X161586Y155090D01*
X162500Y154970D01*
X163414Y155090D01*
X164265Y155443D01*
X164996Y156004D01*
X165557Y156735D01*
X165910Y157586D01*
X166030Y158500D01*
X165910Y159414D01*
X165557Y160265D01*
X164996Y160996D01*
X164265Y161557D01*
X163414Y161910D01*
X162500Y162030D01*
D02*
G37*
G36*
X93000Y161788D02*
X92019Y161659D01*
X91106Y161281D01*
X90321Y160679D01*
X89719Y159894D01*
X89341Y158981D01*
X89212Y158000D01*
X89341Y157019D01*
X89719Y156106D01*
X90321Y155321D01*
X91106Y154719D01*
X92019Y154341D01*
X93000Y154212D01*
X93980Y154341D01*
X94894Y154719D01*
X95679Y155321D01*
X96281Y156106D01*
X96659Y157019D01*
X96788Y158000D01*
X96659Y158981D01*
X96281Y159894D01*
X95679Y160679D01*
X94894Y161281D01*
X93980Y161659D01*
X93000Y161788D01*
D02*
G37*
G36*
X63000D02*
X62019Y161659D01*
X61106Y161281D01*
X60321Y160679D01*
X59719Y159894D01*
X59341Y158981D01*
X59212Y158000D01*
X59341Y157019D01*
X59719Y156106D01*
X60321Y155321D01*
X61106Y154719D01*
X62019Y154341D01*
X63000Y154212D01*
X63981Y154341D01*
X64894Y154719D01*
X65679Y155321D01*
X66281Y156106D01*
X66659Y157019D01*
X66788Y158000D01*
X66659Y158981D01*
X66281Y159894D01*
X65679Y160679D01*
X64894Y161281D01*
X63981Y161659D01*
X63000Y161788D01*
D02*
G37*
G36*
X226000Y160530D02*
X225086Y160410D01*
X224235Y160057D01*
X223504Y159496D01*
X222943Y158765D01*
X222590Y157914D01*
X222470Y157000D01*
X222590Y156086D01*
X222943Y155235D01*
X223504Y154504D01*
X224235Y153943D01*
X225086Y153590D01*
X226000Y153470D01*
X226914Y153590D01*
X227765Y153943D01*
X228496Y154504D01*
X229057Y155235D01*
X229410Y156086D01*
X229530Y157000D01*
X229410Y157914D01*
X229057Y158765D01*
X228496Y159496D01*
X227765Y160057D01*
X226914Y160410D01*
X226000Y160530D01*
D02*
G37*
G36*
X309150Y219807D02*
X300850D01*
Y214752D01*
X275878Y189780D01*
X275380Y189035D01*
X275206Y188157D01*
Y158151D01*
X275004Y157996D01*
X274443Y157265D01*
X274090Y156414D01*
X273970Y155500D01*
X274090Y154586D01*
X274443Y153735D01*
X275004Y153004D01*
X275735Y152443D01*
X276586Y152090D01*
X277500Y151970D01*
X278414Y152090D01*
X279265Y152443D01*
X279996Y153004D01*
X280557Y153735D01*
X280910Y154586D01*
X281030Y155500D01*
X280910Y156414D01*
X280557Y157265D01*
X279996Y157996D01*
X279794Y158151D01*
Y187207D01*
X304095Y211508D01*
X309150D01*
Y219807D01*
D02*
G37*
G36*
X119158Y156500D02*
X111843D01*
Y149185D01*
X119158D01*
Y156500D01*
D02*
G37*
G36*
X40000Y151223D02*
Y148000D01*
X43222D01*
X43159Y148480D01*
X42781Y149394D01*
X42179Y150179D01*
X41394Y150781D01*
X40481Y151159D01*
X40000Y151223D01*
D02*
G37*
G36*
X39000D02*
X38519Y151159D01*
X37606Y150781D01*
X36821Y150179D01*
X36219Y149394D01*
X35841Y148480D01*
X35778Y148000D01*
X39000D01*
Y151223D01*
D02*
G37*
G36*
X85500Y151530D02*
X84586Y151410D01*
X83735Y151057D01*
X83004Y150496D01*
X82443Y149765D01*
X82090Y148914D01*
X81970Y148000D01*
X82090Y147086D01*
X82443Y146235D01*
X83004Y145504D01*
X83735Y144943D01*
X84586Y144590D01*
X85500Y144470D01*
X86414Y144590D01*
X87265Y144943D01*
X87996Y145504D01*
X88557Y146235D01*
X88910Y147086D01*
X89030Y148000D01*
X88910Y148914D01*
X88557Y149765D01*
X87996Y150496D01*
X87265Y151057D01*
X86414Y151410D01*
X85500Y151530D01*
D02*
G37*
G36*
X43222Y147000D02*
X40000D01*
Y143778D01*
X40481Y143841D01*
X41394Y144219D01*
X42179Y144821D01*
X42781Y145606D01*
X43159Y146519D01*
X43222Y147000D01*
D02*
G37*
G36*
X39000D02*
X35778D01*
X35841Y146519D01*
X36219Y145606D01*
X36821Y144821D01*
X37606Y144219D01*
X38519Y143841D01*
X39000Y143778D01*
Y147000D01*
D02*
G37*
G36*
X69500Y151288D02*
X68520Y151159D01*
X67606Y150781D01*
X66821Y150179D01*
X66219Y149394D01*
X65841Y148480D01*
X65712Y147500D01*
X65841Y146519D01*
X66219Y145606D01*
X66821Y144821D01*
X67606Y144219D01*
X68520Y143841D01*
X69500Y143712D01*
X70481Y143841D01*
X71394Y144219D01*
X72179Y144821D01*
X72781Y145606D01*
X73159Y146519D01*
X73288Y147500D01*
X73159Y148480D01*
X72781Y149394D01*
X72179Y150179D01*
X71394Y150781D01*
X70481Y151159D01*
X69500Y151288D01*
D02*
G37*
G36*
X208500Y138825D02*
Y136000D01*
X211325D01*
X211276Y136378D01*
X210937Y137196D01*
X210398Y137898D01*
X209696Y138437D01*
X208878Y138776D01*
X208500Y138825D01*
D02*
G37*
G36*
X207500D02*
X207122Y138776D01*
X206304Y138437D01*
X205602Y137898D01*
X205063Y137196D01*
X204724Y136378D01*
X204675Y136000D01*
X207500D01*
Y138825D01*
D02*
G37*
G36*
X116000Y136781D02*
Y133658D01*
X119123D01*
X119063Y134112D01*
X118695Y135002D01*
X118108Y135766D01*
X117344Y136352D01*
X116455Y136721D01*
X116000Y136781D01*
D02*
G37*
G36*
X115000D02*
X114545Y136721D01*
X113655Y136352D01*
X112891Y135766D01*
X112305Y135002D01*
X111937Y134112D01*
X111877Y133658D01*
X115000D01*
Y136781D01*
D02*
G37*
G36*
X211325Y135000D02*
X208500D01*
Y132175D01*
X208878Y132224D01*
X209696Y132563D01*
X210398Y133102D01*
X210937Y133804D01*
X211276Y134622D01*
X211325Y135000D01*
D02*
G37*
G36*
X207500D02*
X204675D01*
X204724Y134622D01*
X205063Y133804D01*
X205602Y133102D01*
X206304Y132563D01*
X207122Y132224D01*
X207500Y132175D01*
Y135000D01*
D02*
G37*
G36*
X238000Y138891D02*
X237122Y138776D01*
X236304Y138437D01*
X235602Y137898D01*
X235063Y137196D01*
X234724Y136378D01*
X234609Y135500D01*
X234724Y134622D01*
X235063Y133804D01*
X235602Y133102D01*
X236304Y132563D01*
X237122Y132224D01*
X238000Y132109D01*
X238878Y132224D01*
X239696Y132563D01*
X240398Y133102D01*
X240937Y133804D01*
X241276Y134622D01*
X241391Y135500D01*
X241276Y136378D01*
X240937Y137196D01*
X240398Y137898D01*
X239696Y138437D01*
X238878Y138776D01*
X238000Y138891D01*
D02*
G37*
G36*
X150500Y136049D02*
X149524Y135855D01*
X148698Y135302D01*
X148145Y134476D01*
X147951Y133500D01*
X148145Y132525D01*
X148698Y131698D01*
X149524Y131145D01*
X150500Y130951D01*
X151476Y131145D01*
X152302Y131698D01*
X152855Y132525D01*
X153049Y133500D01*
X152855Y134476D01*
X152302Y135302D01*
X151476Y135855D01*
X150500Y136049D01*
D02*
G37*
G36*
X137500D02*
X136524Y135855D01*
X135698Y135302D01*
X135145Y134476D01*
X134951Y133500D01*
X135145Y132525D01*
X135698Y131698D01*
X136524Y131145D01*
X137500Y130951D01*
X138476Y131145D01*
X139302Y131698D01*
X139855Y132525D01*
X140049Y133500D01*
X139855Y134476D01*
X139302Y135302D01*
X138476Y135855D01*
X137500Y136049D01*
D02*
G37*
G36*
X119123Y132658D02*
X116000D01*
Y129534D01*
X116455Y129594D01*
X117344Y129963D01*
X118108Y130549D01*
X118695Y131313D01*
X119063Y132203D01*
X119123Y132658D01*
D02*
G37*
G36*
X115000D02*
X111877D01*
X111937Y132203D01*
X112305Y131313D01*
X112891Y130549D01*
X113655Y129963D01*
X114545Y129594D01*
X115000Y129534D01*
Y132658D01*
D02*
G37*
G36*
X303500Y131288D02*
X302519Y131159D01*
X301606Y130781D01*
X300821Y130179D01*
X300219Y129394D01*
X299841Y128481D01*
X299712Y127500D01*
X299841Y126520D01*
X300219Y125606D01*
X300821Y124821D01*
X301606Y124219D01*
X302519Y123841D01*
X303500Y123712D01*
X304481Y123841D01*
X305394Y124219D01*
X306179Y124821D01*
X306781Y125606D01*
X307159Y126520D01*
X307288Y127500D01*
X307159Y128481D01*
X306781Y129394D01*
X306179Y130179D01*
X305394Y130781D01*
X304481Y131159D01*
X303500Y131288D01*
D02*
G37*
G36*
X291000Y130788D02*
X290019Y130659D01*
X289106Y130281D01*
X288321Y129679D01*
X287719Y128894D01*
X287341Y127980D01*
X287212Y127000D01*
X287341Y126020D01*
X287719Y125106D01*
X288321Y124321D01*
X289106Y123719D01*
X290019Y123341D01*
X291000Y123212D01*
X291981Y123341D01*
X292894Y123719D01*
X293679Y124321D01*
X294281Y125106D01*
X294659Y126020D01*
X294788Y127000D01*
X294659Y127980D01*
X294281Y128894D01*
X293679Y129679D01*
X292894Y130281D01*
X291981Y130659D01*
X291000Y130788D01*
D02*
G37*
G36*
X45000Y110325D02*
Y107500D01*
X47825D01*
X47776Y107878D01*
X47437Y108696D01*
X46898Y109398D01*
X46196Y109937D01*
X45378Y110276D01*
X45000Y110325D01*
D02*
G37*
G36*
X44000D02*
X43622Y110276D01*
X42804Y109937D01*
X42102Y109398D01*
X41563Y108696D01*
X41224Y107878D01*
X41175Y107500D01*
X44000D01*
Y110325D01*
D02*
G37*
G36*
X47825Y106500D02*
X45000D01*
Y103675D01*
X45378Y103724D01*
X46196Y104063D01*
X46898Y104602D01*
X47437Y105304D01*
X47776Y106122D01*
X47825Y106500D01*
D02*
G37*
G36*
X44000D02*
X41175D01*
X41224Y106122D01*
X41563Y105304D01*
X42102Y104602D01*
X42804Y104063D01*
X43622Y103724D01*
X44000Y103675D01*
Y106500D01*
D02*
G37*
G36*
X74500Y110391D02*
X73622Y110276D01*
X72804Y109937D01*
X72102Y109398D01*
X71563Y108696D01*
X71224Y107878D01*
X71109Y107000D01*
X71224Y106122D01*
X71563Y105304D01*
X72102Y104602D01*
X72804Y104063D01*
X73622Y103724D01*
X74500Y103609D01*
X75378Y103724D01*
X76196Y104063D01*
X76898Y104602D01*
X77437Y105304D01*
X77776Y106122D01*
X77891Y107000D01*
X77776Y107878D01*
X77437Y108696D01*
X76898Y109398D01*
X76196Y109937D01*
X75378Y110276D01*
X74500Y110391D01*
D02*
G37*
G36*
X237500Y103325D02*
Y100500D01*
X240325D01*
X240276Y100878D01*
X239937Y101696D01*
X239398Y102398D01*
X238696Y102937D01*
X237878Y103276D01*
X237500Y103325D01*
D02*
G37*
G36*
X236500D02*
X236122Y103276D01*
X235304Y102937D01*
X234602Y102398D01*
X234063Y101696D01*
X233724Y100878D01*
X233675Y100500D01*
X236500D01*
Y103325D01*
D02*
G37*
G36*
X304000Y101223D02*
Y98000D01*
X307223D01*
X307159Y98480D01*
X306781Y99394D01*
X306179Y100179D01*
X305394Y100781D01*
X304481Y101159D01*
X304000Y101223D01*
D02*
G37*
G36*
X303000D02*
X302519Y101159D01*
X301606Y100781D01*
X300821Y100179D01*
X300219Y99394D01*
X299841Y98480D01*
X299778Y98000D01*
X303000D01*
Y101223D01*
D02*
G37*
G36*
X240325Y99500D02*
X237500D01*
Y96675D01*
X237878Y96724D01*
X238696Y97063D01*
X239398Y97602D01*
X239937Y98304D01*
X240276Y99122D01*
X240325Y99500D01*
D02*
G37*
G36*
X236500D02*
X233675D01*
X233724Y99122D01*
X234063Y98304D01*
X234602Y97602D01*
X235304Y97063D01*
X236122Y96724D01*
X236500Y96675D01*
Y99500D01*
D02*
G37*
G36*
X307223Y97000D02*
X304000D01*
Y93778D01*
X304481Y93841D01*
X305394Y94219D01*
X306179Y94821D01*
X306781Y95606D01*
X307159Y96520D01*
X307223Y97000D01*
D02*
G37*
G36*
X303000D02*
X299778D01*
X299841Y96520D01*
X300219Y95606D01*
X300821Y94821D01*
X301606Y94219D01*
X302519Y93841D01*
X303000Y93778D01*
Y97000D01*
D02*
G37*
G36*
X291000Y100788D02*
X290019Y100659D01*
X289106Y100281D01*
X288321Y99679D01*
X287719Y98894D01*
X287341Y97980D01*
X287212Y97000D01*
X287341Y96020D01*
X287719Y95106D01*
X288321Y94321D01*
X289106Y93719D01*
X290019Y93341D01*
X291000Y93212D01*
X291981Y93341D01*
X292894Y93719D01*
X293679Y94321D01*
X294281Y95106D01*
X294659Y96020D01*
X294788Y97000D01*
X294659Y97980D01*
X294281Y98894D01*
X293679Y99679D01*
X292894Y100281D01*
X291981Y100659D01*
X291000Y100788D01*
D02*
G37*
G36*
X137500Y90964D02*
Y88000D01*
X140464D01*
X140410Y88414D01*
X140057Y89265D01*
X139496Y89996D01*
X138765Y90557D01*
X137914Y90910D01*
X137500Y90964D01*
D02*
G37*
G36*
X136500D02*
X136086Y90910D01*
X135235Y90557D01*
X134504Y89996D01*
X133943Y89265D01*
X133590Y88414D01*
X133536Y88000D01*
X136500D01*
Y90964D01*
D02*
G37*
G36*
X88500D02*
Y88000D01*
X91464D01*
X91410Y88414D01*
X91057Y89265D01*
X90496Y89996D01*
X89765Y90557D01*
X88914Y90910D01*
X88500Y90964D01*
D02*
G37*
G36*
X87500D02*
X87086Y90910D01*
X86235Y90557D01*
X85504Y89996D01*
X84943Y89265D01*
X84590Y88414D01*
X84536Y88000D01*
X87500D01*
Y90964D01*
D02*
G37*
G36*
X140464Y87000D02*
X137500D01*
Y84036D01*
X137914Y84090D01*
X138765Y84443D01*
X139496Y85004D01*
X140057Y85735D01*
X140410Y86586D01*
X140464Y87000D01*
D02*
G37*
G36*
X136500D02*
X133536D01*
X133590Y86586D01*
X133943Y85735D01*
X134504Y85004D01*
X135235Y84443D01*
X136086Y84090D01*
X136500Y84036D01*
Y87000D01*
D02*
G37*
G36*
X91464D02*
X88500D01*
Y84036D01*
X88914Y84090D01*
X89765Y84443D01*
X90496Y85004D01*
X91057Y85735D01*
X91410Y86586D01*
X91464Y87000D01*
D02*
G37*
G36*
X87500D02*
X84536D01*
X84590Y86586D01*
X84943Y85735D01*
X85504Y85004D01*
X86235Y84443D01*
X87086Y84090D01*
X87500Y84036D01*
Y87000D01*
D02*
G37*
G36*
X45000Y80325D02*
Y77500D01*
X47825D01*
X47776Y77878D01*
X47437Y78696D01*
X46898Y79398D01*
X46196Y79937D01*
X45378Y80276D01*
X45000Y80325D01*
D02*
G37*
G36*
X44000D02*
X43622Y80276D01*
X42804Y79937D01*
X42102Y79398D01*
X41563Y78696D01*
X41224Y77878D01*
X41175Y77500D01*
X44000D01*
Y80325D01*
D02*
G37*
G36*
X47825Y76500D02*
X45000D01*
Y73675D01*
X45378Y73724D01*
X46196Y74063D01*
X46898Y74602D01*
X47437Y75304D01*
X47776Y76122D01*
X47825Y76500D01*
D02*
G37*
G36*
X44000D02*
X41175D01*
X41224Y76122D01*
X41563Y75304D01*
X42102Y74602D01*
X42804Y74063D01*
X43622Y73724D01*
X44000Y73675D01*
Y76500D01*
D02*
G37*
G36*
X74500Y80391D02*
X73622Y80276D01*
X72804Y79937D01*
X72102Y79398D01*
X71563Y78696D01*
X71224Y77878D01*
X71109Y77000D01*
X71224Y76122D01*
X71563Y75304D01*
X72102Y74602D01*
X72804Y74063D01*
X73622Y73724D01*
X74500Y73609D01*
X75378Y73724D01*
X76196Y74063D01*
X76898Y74602D01*
X77437Y75304D01*
X77776Y76122D01*
X77891Y77000D01*
X77776Y77878D01*
X77437Y78696D01*
X76898Y79398D01*
X76196Y79937D01*
X75378Y80276D01*
X74500Y80391D01*
D02*
G37*
G36*
X237000Y73391D02*
X236122Y73276D01*
X235304Y72937D01*
X234602Y72398D01*
X234063Y71696D01*
X233724Y70878D01*
X233609Y70000D01*
X233724Y69122D01*
X234063Y68304D01*
X234602Y67602D01*
X235304Y67063D01*
X236122Y66724D01*
X237000Y66609D01*
X237878Y66724D01*
X238696Y67063D01*
X239398Y67602D01*
X239937Y68304D01*
X240276Y69122D01*
X240391Y70000D01*
X240276Y70878D01*
X239937Y71696D01*
X239398Y72398D01*
X238696Y72937D01*
X237878Y73276D01*
X237000Y73391D01*
D02*
G37*
G36*
X150000Y65049D02*
X149024Y64855D01*
X148198Y64302D01*
X147645Y63476D01*
X147451Y62500D01*
X147645Y61524D01*
X148198Y60698D01*
X149024Y60145D01*
X150000Y59951D01*
X150976Y60145D01*
X151802Y60698D01*
X152355Y61524D01*
X152549Y62500D01*
X152355Y63476D01*
X151802Y64302D01*
X150976Y64855D01*
X150000Y65049D01*
D02*
G37*
G36*
X137000D02*
X136024Y64855D01*
X135198Y64302D01*
X134645Y63476D01*
X134451Y62500D01*
X134645Y61524D01*
X135198Y60698D01*
X136024Y60145D01*
X137000Y59951D01*
X137976Y60145D01*
X138802Y60698D01*
X139355Y61524D01*
X139549Y62500D01*
X139355Y63476D01*
X138802Y64302D01*
X137976Y64855D01*
X137000Y65049D01*
D02*
G37*
G36*
X245500Y51323D02*
Y49374D01*
X247449D01*
X247355Y49850D01*
X246802Y50676D01*
X245975Y51229D01*
X245500Y51323D01*
D02*
G37*
G36*
X244500D02*
X244024Y51229D01*
X243198Y50676D01*
X242645Y49850D01*
X242550Y49374D01*
X244500D01*
Y51323D01*
D02*
G37*
G36*
X288500Y51825D02*
Y49000D01*
X291325D01*
X291276Y49378D01*
X290937Y50196D01*
X290398Y50898D01*
X289696Y51437D01*
X288878Y51776D01*
X288500Y51825D01*
D02*
G37*
G36*
X287500D02*
X287122Y51776D01*
X286304Y51437D01*
X285602Y50898D01*
X285063Y50196D01*
X284724Y49378D01*
X284675Y49000D01*
X287500D01*
Y51825D01*
D02*
G37*
G36*
X247449Y48374D02*
X245500D01*
Y46424D01*
X245975Y46519D01*
X246802Y47072D01*
X247355Y47899D01*
X247449Y48374D01*
D02*
G37*
G36*
X244500D02*
X242550D01*
X242645Y47899D01*
X243198Y47072D01*
X244024Y46519D01*
X244500Y46424D01*
Y48374D01*
D02*
G37*
G36*
X291325Y48000D02*
X288500D01*
Y45175D01*
X288878Y45224D01*
X289696Y45563D01*
X290398Y46102D01*
X290937Y46804D01*
X291276Y47622D01*
X291325Y48000D01*
D02*
G37*
G36*
X287500D02*
X284675D01*
X284724Y47622D01*
X285063Y46804D01*
X285602Y46102D01*
X286304Y45563D01*
X287122Y45224D01*
X287500Y45175D01*
Y48000D01*
D02*
G37*
G36*
X258000Y51891D02*
X257122Y51776D01*
X256304Y51437D01*
X255602Y50898D01*
X255063Y50196D01*
X254724Y49378D01*
X254609Y48500D01*
X254724Y47622D01*
X255063Y46804D01*
X255602Y46102D01*
X256304Y45563D01*
X257122Y45224D01*
X258000Y45109D01*
X258878Y45224D01*
X259696Y45563D01*
X260398Y46102D01*
X260937Y46804D01*
X261276Y47622D01*
X261391Y48500D01*
X261276Y49378D01*
X260937Y50196D01*
X260398Y50898D01*
X259696Y51437D01*
X258878Y51776D01*
X258000Y51891D01*
D02*
G37*
G36*
X160500Y49549D02*
X159525Y49355D01*
X158698Y48802D01*
X158145Y47976D01*
X157951Y47000D01*
X158145Y46025D01*
X158698Y45198D01*
X159525Y44645D01*
X160500Y44451D01*
X161476Y44645D01*
X162302Y45198D01*
X162855Y46025D01*
X163049Y47000D01*
X162855Y47976D01*
X162302Y48802D01*
X161476Y49355D01*
X160500Y49549D01*
D02*
G37*
G36*
X147500D02*
X146525Y49355D01*
X145698Y48802D01*
X145145Y47976D01*
X144951Y47000D01*
X145145Y46025D01*
X145698Y45198D01*
X146525Y44645D01*
X147500Y44451D01*
X148476Y44645D01*
X149302Y45198D01*
X149855Y46025D01*
X150049Y47000D01*
X149855Y47976D01*
X149302Y48802D01*
X148476Y49355D01*
X147500Y49549D01*
D02*
G37*
G36*
X92000Y45950D02*
Y44000D01*
X93950D01*
X93855Y44475D01*
X93302Y45302D01*
X92475Y45855D01*
X92000Y45950D01*
D02*
G37*
G36*
X91000D02*
X90525Y45855D01*
X89698Y45302D01*
X89145Y44475D01*
X89051Y44000D01*
X91000D01*
Y45950D01*
D02*
G37*
G36*
X93950Y43000D02*
X92000D01*
Y41050D01*
X92475Y41145D01*
X93302Y41698D01*
X93855Y42524D01*
X93950Y43000D01*
D02*
G37*
G36*
X91000D02*
X89051D01*
X89145Y42524D01*
X89698Y41698D01*
X90525Y41145D01*
X91000Y41050D01*
Y43000D01*
D02*
G37*
G36*
X135000Y43325D02*
Y40500D01*
X137825D01*
X137776Y40878D01*
X137437Y41696D01*
X136898Y42398D01*
X136196Y42937D01*
X135378Y43276D01*
X135000Y43325D01*
D02*
G37*
G36*
X134000D02*
X133622Y43276D01*
X132804Y42937D01*
X132102Y42398D01*
X131563Y41696D01*
X131224Y40878D01*
X131175Y40500D01*
X134000D01*
Y43325D01*
D02*
G37*
G36*
X263000Y45549D02*
X262024Y45355D01*
X261198Y44802D01*
X260879Y44326D01*
X246500D01*
X245993Y44225D01*
X245563Y43937D01*
X230951Y29326D01*
X192500D01*
X191993Y29225D01*
X191563Y28937D01*
X177200Y14574D01*
X176532Y14851D01*
X175500Y14987D01*
X174468Y14851D01*
X173507Y14453D01*
X172681Y13819D01*
X172047Y12993D01*
X171649Y12032D01*
X171513Y11000D01*
X171649Y9968D01*
X172047Y9007D01*
X172681Y8181D01*
X173507Y7547D01*
X174468Y7149D01*
X175500Y7013D01*
X176532Y7149D01*
X177493Y7547D01*
X178319Y8181D01*
X178953Y9007D01*
X179351Y9968D01*
X179487Y11000D01*
X179351Y12032D01*
X179074Y12700D01*
X181047Y14673D01*
X181547Y14466D01*
Y11500D01*
X185000D01*
Y14953D01*
X182034D01*
X181827Y15453D01*
X193049Y26675D01*
X231500D01*
X232007Y26775D01*
X232437Y27063D01*
X247049Y41675D01*
X260879D01*
X261198Y41198D01*
X262024Y40645D01*
X263000Y40451D01*
X263976Y40645D01*
X264802Y41198D01*
X265355Y42024D01*
X265549Y43000D01*
X265355Y43975D01*
X264802Y44802D01*
X263976Y45355D01*
X263000Y45549D01*
D02*
G37*
G36*
X46657Y42123D02*
Y39000D01*
X49781D01*
X49721Y39455D01*
X49352Y40345D01*
X48766Y41109D01*
X48002Y41695D01*
X47112Y42063D01*
X46657Y42123D01*
D02*
G37*
G36*
X45658D02*
X45203Y42063D01*
X44313Y41695D01*
X43549Y41109D01*
X42963Y40345D01*
X42594Y39455D01*
X42534Y39000D01*
X45658D01*
Y42123D01*
D02*
G37*
G36*
X201157Y41123D02*
Y38000D01*
X204281D01*
X204221Y38455D01*
X203852Y39344D01*
X203266Y40109D01*
X202502Y40695D01*
X201612Y41063D01*
X201157Y41123D01*
D02*
G37*
G36*
X200157D02*
X199703Y41063D01*
X198813Y40695D01*
X198049Y40109D01*
X197463Y39344D01*
X197094Y38455D01*
X197034Y38000D01*
X200157D01*
Y41123D01*
D02*
G37*
G36*
X137825Y39500D02*
X135000D01*
Y36675D01*
X135378Y36724D01*
X136196Y37063D01*
X136898Y37602D01*
X137437Y38304D01*
X137776Y39122D01*
X137825Y39500D01*
D02*
G37*
G36*
X134000D02*
X131175D01*
X131224Y39122D01*
X131563Y38304D01*
X132102Y37602D01*
X132804Y37063D01*
X133622Y36724D01*
X134000Y36675D01*
Y39500D01*
D02*
G37*
G36*
X104500Y43391D02*
X103622Y43276D01*
X102804Y42937D01*
X102102Y42398D01*
X101563Y41696D01*
X101224Y40878D01*
X101109Y40000D01*
X101224Y39122D01*
X101563Y38304D01*
X102102Y37602D01*
X102804Y37063D01*
X103622Y36724D01*
X104500Y36609D01*
X105378Y36724D01*
X106196Y37063D01*
X106898Y37602D01*
X107437Y38304D01*
X107776Y39122D01*
X107891Y40000D01*
X107776Y40878D01*
X107437Y41696D01*
X106898Y42398D01*
X106196Y42937D01*
X105378Y43276D01*
X104500Y43391D01*
D02*
G37*
G36*
X49781Y38000D02*
X46657D01*
Y34877D01*
X47112Y34937D01*
X48002Y35305D01*
X48766Y35892D01*
X49352Y36656D01*
X49721Y37545D01*
X49781Y38000D01*
D02*
G37*
G36*
X45658D02*
X42534D01*
X42594Y37545D01*
X42963Y36656D01*
X43549Y35892D01*
X44313Y35305D01*
X45203Y34937D01*
X45658Y34877D01*
Y38000D01*
D02*
G37*
G36*
X69500Y42158D02*
X62185D01*
Y34843D01*
X69500D01*
Y42158D01*
D02*
G37*
G36*
X162000Y39049D02*
X161024Y38855D01*
X160198Y38302D01*
X159645Y37475D01*
X159451Y36500D01*
X159645Y35524D01*
X160198Y34698D01*
X161024Y34145D01*
X162000Y33951D01*
X162976Y34145D01*
X163802Y34698D01*
X164355Y35524D01*
X164549Y36500D01*
X164355Y37475D01*
X163802Y38302D01*
X162976Y38855D01*
X162000Y39049D01*
D02*
G37*
G36*
X149000D02*
X148024Y38855D01*
X147198Y38302D01*
X146645Y37475D01*
X146451Y36500D01*
X146645Y35524D01*
X147198Y34698D01*
X148024Y34145D01*
X149000Y33951D01*
X149976Y34145D01*
X150802Y34698D01*
X151355Y35524D01*
X151549Y36500D01*
X151355Y37475D01*
X150802Y38302D01*
X149976Y38855D01*
X149000Y39049D01*
D02*
G37*
G36*
X204281Y37000D02*
X201157D01*
Y33877D01*
X201612Y33937D01*
X202502Y34305D01*
X203266Y34892D01*
X203852Y35656D01*
X204221Y36545D01*
X204281Y37000D01*
D02*
G37*
G36*
X200157D02*
X197034D01*
X197094Y36545D01*
X197463Y35656D01*
X198049Y34892D01*
X198813Y34305D01*
X199703Y33937D01*
X200157Y33877D01*
Y37000D01*
D02*
G37*
G36*
X224000Y41157D02*
X216685D01*
Y33843D01*
X224000D01*
Y41157D01*
D02*
G37*
G36*
X282500Y37288D02*
X281520Y37159D01*
X280606Y36781D01*
X279821Y36179D01*
X279219Y35394D01*
X278841Y34481D01*
X278712Y33500D01*
X278841Y32520D01*
X279219Y31606D01*
X279821Y30821D01*
X280606Y30219D01*
X281520Y29841D01*
X282500Y29712D01*
X283481Y29841D01*
X284394Y30219D01*
X285179Y30821D01*
X285781Y31606D01*
X286159Y32520D01*
X286288Y33500D01*
X286159Y34481D01*
X285781Y35394D01*
X285179Y36179D01*
X284394Y36781D01*
X283481Y37159D01*
X282500Y37288D01*
D02*
G37*
G36*
X252500D02*
X251519Y37159D01*
X250606Y36781D01*
X249821Y36179D01*
X249219Y35394D01*
X248841Y34481D01*
X248712Y33500D01*
X248841Y32520D01*
X249219Y31606D01*
X249821Y30821D01*
X250606Y30219D01*
X251519Y29841D01*
X252500Y29712D01*
X253481Y29841D01*
X254394Y30219D01*
X255179Y30821D01*
X255781Y31606D01*
X256159Y32520D01*
X256288Y33500D01*
X256159Y34481D01*
X255781Y35394D01*
X255179Y36179D01*
X254394Y36781D01*
X253481Y37159D01*
X252500Y37288D01*
D02*
G37*
G36*
X237000Y24421D02*
Y21000D01*
X240421D01*
X240351Y21532D01*
X239953Y22493D01*
X239319Y23319D01*
X238493Y23953D01*
X237532Y24351D01*
X237000Y24421D01*
D02*
G37*
G36*
X236000D02*
X235468Y24351D01*
X234507Y23953D01*
X233681Y23319D01*
X233047Y22493D01*
X232649Y21532D01*
X232579Y21000D01*
X236000D01*
Y24421D01*
D02*
G37*
G36*
X227000D02*
Y21000D01*
X230421D01*
X230351Y21532D01*
X229953Y22493D01*
X229319Y23319D01*
X228493Y23953D01*
X227532Y24351D01*
X227000Y24421D01*
D02*
G37*
G36*
X226000D02*
X225468Y24351D01*
X224507Y23953D01*
X223681Y23319D01*
X223047Y22493D01*
X222649Y21532D01*
X222579Y21000D01*
X226000D01*
Y24421D01*
D02*
G37*
G36*
X217000D02*
Y21000D01*
X220421D01*
X220351Y21532D01*
X219953Y22493D01*
X219319Y23319D01*
X218493Y23953D01*
X217532Y24351D01*
X217000Y24421D01*
D02*
G37*
G36*
X216000D02*
X215468Y24351D01*
X214507Y23953D01*
X213681Y23319D01*
X213047Y22493D01*
X212649Y21532D01*
X212579Y21000D01*
X216000D01*
Y24421D01*
D02*
G37*
G36*
X138500D02*
Y21000D01*
X141921D01*
X141851Y21532D01*
X141453Y22493D01*
X140819Y23319D01*
X139993Y23953D01*
X139032Y24351D01*
X138500Y24421D01*
D02*
G37*
G36*
X137500D02*
X136968Y24351D01*
X136007Y23953D01*
X135181Y23319D01*
X134547Y22493D01*
X134149Y21532D01*
X134079Y21000D01*
X137500D01*
Y24421D01*
D02*
G37*
G36*
X128500D02*
Y21000D01*
X131921D01*
X131851Y21532D01*
X131453Y22493D01*
X130819Y23319D01*
X129993Y23953D01*
X129032Y24351D01*
X128500Y24421D01*
D02*
G37*
G36*
X127500D02*
X126968Y24351D01*
X126007Y23953D01*
X125181Y23319D01*
X124547Y22493D01*
X124149Y21532D01*
X124079Y21000D01*
X127500D01*
Y24421D01*
D02*
G37*
G36*
X118500D02*
Y21000D01*
X121921D01*
X121851Y21532D01*
X121453Y22493D01*
X120819Y23319D01*
X119993Y23953D01*
X119032Y24351D01*
X118500Y24421D01*
D02*
G37*
G36*
X117500D02*
X116968Y24351D01*
X116007Y23953D01*
X115181Y23319D01*
X114547Y22493D01*
X114149Y21532D01*
X114079Y21000D01*
X117500D01*
Y24421D01*
D02*
G37*
G36*
X240421Y20000D02*
X237000D01*
Y16579D01*
X237532Y16649D01*
X238493Y17047D01*
X239319Y17681D01*
X239953Y18507D01*
X240351Y19468D01*
X240421Y20000D01*
D02*
G37*
G36*
X236000D02*
X232579D01*
X232649Y19468D01*
X233047Y18507D01*
X233681Y17681D01*
X234507Y17047D01*
X235468Y16649D01*
X236000Y16579D01*
Y20000D01*
D02*
G37*
G36*
X230421D02*
X227000D01*
Y16579D01*
X227532Y16649D01*
X228493Y17047D01*
X229319Y17681D01*
X229953Y18507D01*
X230351Y19468D01*
X230421Y20000D01*
D02*
G37*
G36*
X226000D02*
X222579D01*
X222649Y19468D01*
X223047Y18507D01*
X223681Y17681D01*
X224507Y17047D01*
X225468Y16649D01*
X226000Y16579D01*
Y20000D01*
D02*
G37*
G36*
X220421D02*
X217000D01*
Y16579D01*
X217532Y16649D01*
X218493Y17047D01*
X219319Y17681D01*
X219953Y18507D01*
X220351Y19468D01*
X220421Y20000D01*
D02*
G37*
G36*
X216000D02*
X212579D01*
X212649Y19468D01*
X213047Y18507D01*
X213681Y17681D01*
X214507Y17047D01*
X215468Y16649D01*
X216000Y16579D01*
Y20000D01*
D02*
G37*
G36*
X141921D02*
X138500D01*
Y16579D01*
X139032Y16649D01*
X139993Y17047D01*
X140819Y17681D01*
X141453Y18507D01*
X141851Y19468D01*
X141921Y20000D01*
D02*
G37*
G36*
X137500D02*
X134079D01*
X134149Y19468D01*
X134547Y18507D01*
X135181Y17681D01*
X136007Y17047D01*
X136968Y16649D01*
X137500Y16579D01*
Y20000D01*
D02*
G37*
G36*
X131921D02*
X128500D01*
Y16579D01*
X129032Y16649D01*
X129993Y17047D01*
X130819Y17681D01*
X131453Y18507D01*
X131851Y19468D01*
X131921Y20000D01*
D02*
G37*
G36*
X127500D02*
X124079D01*
X124149Y19468D01*
X124547Y18507D01*
X125181Y17681D01*
X126007Y17047D01*
X126968Y16649D01*
X127500Y16579D01*
Y20000D01*
D02*
G37*
G36*
X121921D02*
X118500D01*
Y16579D01*
X119032Y16649D01*
X119993Y17047D01*
X120819Y17681D01*
X121453Y18507D01*
X121851Y19468D01*
X121921Y20000D01*
D02*
G37*
G36*
X117500D02*
X114079D01*
X114149Y19468D01*
X114547Y18507D01*
X115181Y17681D01*
X116007Y17047D01*
X116968Y16649D01*
X117500Y16579D01*
Y20000D01*
D02*
G37*
G36*
X246500Y23030D02*
X245586Y22910D01*
X244735Y22557D01*
X244004Y21996D01*
X243443Y21265D01*
X243090Y20414D01*
X242970Y19500D01*
X243090Y18586D01*
X243443Y17735D01*
X244004Y17004D01*
X244735Y16443D01*
X245586Y16090D01*
X246500Y15970D01*
X247414Y16090D01*
X248265Y16443D01*
X248996Y17004D01*
X249557Y17735D01*
X249910Y18586D01*
X250030Y19500D01*
X249910Y20414D01*
X249557Y21265D01*
X248996Y21996D01*
X248265Y22557D01*
X247414Y22910D01*
X246500Y23030D01*
D02*
G37*
G36*
X101000Y22288D02*
X100020Y22159D01*
X99106Y21781D01*
X98321Y21179D01*
X97719Y20394D01*
X97341Y19480D01*
X97212Y18500D01*
X97341Y17519D01*
X97719Y16606D01*
X98321Y15821D01*
X99106Y15219D01*
X100020Y14841D01*
X101000Y14712D01*
X101980Y14841D01*
X102894Y15219D01*
X103679Y15821D01*
X104281Y16606D01*
X104659Y17519D01*
X104788Y18500D01*
X104659Y19480D01*
X104281Y20394D01*
X103679Y21179D01*
X102894Y21781D01*
X101980Y22159D01*
X101000Y22288D01*
D02*
G37*
G36*
X71000D02*
X70020Y22159D01*
X69106Y21781D01*
X68321Y21179D01*
X67719Y20394D01*
X67341Y19480D01*
X67212Y18500D01*
X67341Y17519D01*
X67719Y16606D01*
X68321Y15821D01*
X69106Y15219D01*
X70020Y14841D01*
X71000Y14712D01*
X71981Y14841D01*
X72894Y15219D01*
X73679Y15821D01*
X74281Y16606D01*
X74659Y17519D01*
X74788Y18500D01*
X74659Y19480D01*
X74281Y20394D01*
X73679Y21179D01*
X72894Y21781D01*
X71981Y22159D01*
X71000Y22288D01*
D02*
G37*
G36*
X189453Y14953D02*
X186000D01*
Y11500D01*
X189453D01*
Y14953D01*
D02*
G37*
G36*
Y10500D02*
X186000D01*
Y7047D01*
X189453D01*
Y10500D01*
D02*
G37*
G36*
X185000D02*
X181547D01*
Y7047D01*
X185000D01*
Y10500D01*
D02*
G37*
G36*
X165500Y14987D02*
X164468Y14851D01*
X163507Y14453D01*
X162681Y13819D01*
X162047Y12993D01*
X161649Y12032D01*
X161513Y11000D01*
X161649Y9968D01*
X162047Y9007D01*
X162681Y8181D01*
X163507Y7547D01*
X164468Y7149D01*
X165500Y7013D01*
X166532Y7149D01*
X167493Y7547D01*
X168319Y8181D01*
X168953Y9007D01*
X169351Y9968D01*
X169487Y11000D01*
X169351Y12032D01*
X168953Y12993D01*
X168319Y13819D01*
X167493Y14453D01*
X166532Y14851D01*
X165500Y14987D01*
D02*
G37*
G36*
X143500Y180530D02*
X142586Y180410D01*
X141735Y180057D01*
X141004Y179496D01*
X140443Y178765D01*
X140090Y177914D01*
X139970Y177000D01*
X140090Y176086D01*
X140443Y175235D01*
X141004Y174504D01*
X141735Y173943D01*
X142174Y173761D01*
Y58000D01*
X142275Y57493D01*
X142563Y57063D01*
X154174Y45451D01*
Y14729D01*
X153507Y14453D01*
X152681Y13819D01*
X152047Y12993D01*
X151649Y12032D01*
X151513Y11000D01*
X151649Y9968D01*
X152047Y9007D01*
X152681Y8181D01*
X153507Y7547D01*
X154468Y7149D01*
X155500Y7013D01*
X156532Y7149D01*
X157493Y7547D01*
X158319Y8181D01*
X158953Y9007D01*
X159351Y9968D01*
X159487Y11000D01*
X159351Y12032D01*
X158953Y12993D01*
X158319Y13819D01*
X157493Y14453D01*
X156825Y14729D01*
Y46000D01*
X156725Y46507D01*
X156437Y46937D01*
X144825Y58549D01*
Y173761D01*
X145265Y173943D01*
X145996Y174504D01*
X146557Y175235D01*
X146910Y176086D01*
X147030Y177000D01*
X146910Y177914D01*
X146557Y178765D01*
X145996Y179496D01*
X145265Y180057D01*
X144414Y180410D01*
X143500Y180530D01*
D02*
G37*
G36*
X87000Y14030D02*
X86086Y13910D01*
X85235Y13557D01*
X84504Y12996D01*
X83943Y12265D01*
X83590Y11414D01*
X83470Y10500D01*
X83590Y9586D01*
X83943Y8735D01*
X84504Y8004D01*
X85235Y7443D01*
X86086Y7090D01*
X87000Y6970D01*
X87914Y7090D01*
X88765Y7443D01*
X89496Y8004D01*
X90057Y8735D01*
X90410Y9586D01*
X90530Y10500D01*
X90410Y11414D01*
X90057Y12265D01*
X89496Y12996D01*
X88765Y13557D01*
X87914Y13910D01*
X87000Y14030D01*
D02*
G37*
G36*
X220453Y14453D02*
X212547D01*
Y6547D01*
X220453D01*
Y14453D01*
D02*
G37*
G36*
X121953D02*
X114047D01*
Y6547D01*
X121953D01*
Y14453D01*
D02*
G37*
G36*
X236500Y14487D02*
X235468Y14351D01*
X234507Y13953D01*
X233681Y13319D01*
X233047Y12493D01*
X232649Y11532D01*
X232513Y10500D01*
X232649Y9468D01*
X233047Y8507D01*
X233681Y7681D01*
X234507Y7047D01*
X235468Y6649D01*
X236500Y6513D01*
X237532Y6649D01*
X238493Y7047D01*
X239319Y7681D01*
X239953Y8507D01*
X240351Y9468D01*
X240487Y10500D01*
X240351Y11532D01*
X239953Y12493D01*
X239319Y13319D01*
X238493Y13953D01*
X237532Y14351D01*
X236500Y14487D01*
D02*
G37*
G36*
X226500D02*
X225468Y14351D01*
X224507Y13953D01*
X223681Y13319D01*
X223047Y12493D01*
X222649Y11532D01*
X222513Y10500D01*
X222649Y9468D01*
X223047Y8507D01*
X223681Y7681D01*
X224507Y7047D01*
X225468Y6649D01*
X226500Y6513D01*
X227532Y6649D01*
X228493Y7047D01*
X229319Y7681D01*
X229953Y8507D01*
X230351Y9468D01*
X230487Y10500D01*
X230351Y11532D01*
X229953Y12493D01*
X229319Y13319D01*
X228493Y13953D01*
X227532Y14351D01*
X226500Y14487D01*
D02*
G37*
G36*
X138000D02*
X136968Y14351D01*
X136007Y13953D01*
X135181Y13319D01*
X134547Y12493D01*
X134149Y11532D01*
X134013Y10500D01*
X134149Y9468D01*
X134547Y8507D01*
X135181Y7681D01*
X136007Y7047D01*
X136968Y6649D01*
X138000Y6513D01*
X139032Y6649D01*
X139993Y7047D01*
X140819Y7681D01*
X141453Y8507D01*
X141851Y9468D01*
X141987Y10500D01*
X141851Y11532D01*
X141453Y12493D01*
X140819Y13319D01*
X139993Y13953D01*
X139032Y14351D01*
X138000Y14487D01*
D02*
G37*
G36*
X128000D02*
X126968Y14351D01*
X126007Y13953D01*
X125181Y13319D01*
X124547Y12493D01*
X124149Y11532D01*
X124013Y10500D01*
X124149Y9468D01*
X124547Y8507D01*
X125181Y7681D01*
X126007Y7047D01*
X126968Y6649D01*
X128000Y6513D01*
X129032Y6649D01*
X129993Y7047D01*
X130819Y7681D01*
X131453Y8507D01*
X131851Y9468D01*
X131987Y10500D01*
X131851Y11532D01*
X131453Y12493D01*
X130819Y13319D01*
X129993Y13953D01*
X129032Y14351D01*
X128000Y14487D01*
D02*
G37*
%LPD*%
D11*
X143500Y58000D02*
X155500Y46000D01*
Y11000D02*
Y46000D01*
X143500Y58000D02*
Y177000D01*
X246500Y43000D02*
X263000D01*
X231500Y28000D02*
X246500Y43000D01*
X175500Y11000D02*
X192500Y28000D01*
X231500D01*
D12*
X195000Y178000D02*
X201000Y184000D01*
Y207500D01*
X236000Y242500D01*
D45*
X277500Y188157D02*
X305000Y215657D01*
X277500Y155500D02*
Y188157D01*
X277000Y155500D02*
X277500D01*
X226000Y157000D02*
X226500D01*
D48*
X155500Y11000D02*
D03*
X165500D02*
D03*
X175500D02*
D03*
X118000Y20500D02*
D03*
X128000Y10500D02*
D03*
Y20500D02*
D03*
X138000Y10500D02*
D03*
Y20500D02*
D03*
X236000Y242500D02*
D03*
X216500Y20500D02*
D03*
X226500Y10500D02*
D03*
Y20500D02*
D03*
X236500Y10500D02*
D03*
Y20500D02*
D03*
X198500Y242500D02*
D03*
D49*
X185500Y11000D02*
D03*
X118000Y10500D02*
D03*
X246000Y242500D02*
D03*
X216500Y10500D02*
D03*
X208500Y242500D02*
D03*
D50*
X305500Y165657D02*
D03*
X305000Y215657D02*
D03*
D51*
X305500Y185343D02*
D03*
X305000Y235343D02*
D03*
X42158Y229500D02*
D03*
D52*
X152657Y199000D02*
D03*
X200658Y37500D02*
D03*
X46158Y38500D02*
D03*
X115500Y133158D02*
D03*
X151657Y229000D02*
D03*
X143842Y199000D02*
D03*
D53*
X172343D02*
D03*
X220342Y37500D02*
D03*
X65842Y38500D02*
D03*
X171343Y229000D02*
D03*
X124158Y199000D02*
D03*
D54*
X252500Y33500D02*
D03*
X282500D02*
D03*
X69500Y147500D02*
D03*
X39500D02*
D03*
X124000Y167500D02*
D03*
X154000D02*
D03*
X124500Y184500D02*
D03*
X154500D02*
D03*
X101500Y198000D02*
D03*
X71500D02*
D03*
X93000Y158000D02*
D03*
X63000D02*
D03*
X71500Y189000D02*
D03*
X41500D02*
D03*
X291000Y97000D02*
D03*
Y127000D02*
D03*
X303500Y127500D02*
D03*
Y97500D02*
D03*
X71000Y18500D02*
D03*
X101000D02*
D03*
D55*
X115500Y152842D02*
D03*
D56*
X71500Y176000D02*
D03*
X41500D02*
D03*
X238000Y135500D02*
D03*
X208000D02*
D03*
X237000Y70000D02*
D03*
Y100000D02*
D03*
X74500Y77000D02*
D03*
X44500D02*
D03*
X74500Y107000D02*
D03*
X44500D02*
D03*
X258000Y48500D02*
D03*
X288000D02*
D03*
X104500Y40000D02*
D03*
X134500D02*
D03*
D57*
X61843Y229500D02*
D03*
D58*
X246500Y19500D02*
D03*
X87000Y10500D02*
D03*
X80500Y217500D02*
D03*
X85500Y148000D02*
D03*
X143500Y177000D02*
D03*
X277500Y155500D02*
D03*
X137000Y87500D02*
D03*
X226000Y157000D02*
D03*
X184050Y201050D02*
D03*
X217000Y163500D02*
D03*
X216500Y200000D02*
D03*
X184500Y163500D02*
D03*
X162500Y158500D02*
D03*
X88000Y87500D02*
D03*
D59*
X149000Y36500D02*
D03*
X162000D02*
D03*
X147500Y47000D02*
D03*
X160500D02*
D03*
X137000Y62500D02*
D03*
X150000D02*
D03*
X150500Y133500D02*
D03*
X137500D02*
D03*
X263000Y43000D02*
D03*
X195000Y178000D02*
D03*
X91500Y43500D02*
D03*
X245000Y48874D02*
D03*
D60*
X81500Y178000D02*
D03*
M02*
