M48
;Layer_Color=9474304
;FILE_FORMAT=2:5
INCH,LZ
;TYPE=PLATED
T1F00S00C0.01500
T2F00S00C0.02000
T3F00S00C0.02756
T4F00S00C0.02800
T5F00S00C0.03150
T6F00S00C0.03346
T7F00S00C0.03543
T8F00S00C0.04331
%
T01
X00915Y00435
X01475Y0047
X0149Y00365
X015Y00625
X0137
X01375Y01335
X01505
X01605Y0047
X0162Y00365
X0245Y0048874
X0263Y0043
X0195Y0178
T02
X00815Y0178
T03
X00445Y0077
X00745
Y0107
X00445
X01045Y004
X01345
X0258Y00485
X0288
X0237Y007
Y01
X0238Y01355
X0208
X00715Y0176
X00415
T04
X0087Y00105
X0088Y00875
X0137
X00855Y0148
X02775Y01555
X02465Y00195
X0226Y0157
X0217Y01635
X01845
X01625Y01585
X018405Y020105
X02165Y02
X01435Y0177
X00805Y02175
T05
X0046158Y00385
X0065842Y00385
X01155Y0133158
X01155Y0152842
X0200658Y00375
X0220342Y00375
X0172343Y0199
X0171343Y0229
X0151657Y0229
X0152657Y0199
X0143842Y0199
X0124158Y0199
T06
X0071Y00185
X0101
X00695Y01475
X00395
X0291Y0127
X03035Y01275
Y00975
X0291Y0097
X02825Y00335
X02525
X0154Y01675
X01545Y01845
X01245
X0124Y01675
X0093Y0158
X0063
X00715Y0189
Y0198
X01015
X00415Y0189
T07
X0118Y00105
Y00205
X0128
Y00105
X0138
Y00205
X01555Y0011
X01655
X01755
X01855
X02165Y00105
Y00205
X02265
Y00105
X02365
Y00205
X0236Y02425
X0246
X02085
X01985
T08
X03055Y0165657
Y0185343
X0305Y0215657
Y0235343
X0061843Y02295
X0042158
M30
