G04*
G04 #@! TF.GenerationSoftware,Altium Limited,Altium Designer,19.1.8 (144)*
G04*
G04 Layer_Color=32768*
%FSLAX25Y25*%
%MOIN*%
G70*
G01*
G75*
%ADD11C,0.00600*%
%ADD62C,0.00394*%
%ADD65C,0.00197*%
G36*
X91650Y167123D02*
X86100D01*
Y185877D01*
X91650D01*
Y187550D01*
X111350D01*
Y185877D01*
X116900D01*
Y167123D01*
X111350D01*
Y165450D01*
X91650D01*
Y167123D01*
D02*
G37*
G36*
X186150Y166450D02*
X180400D01*
Y185550D01*
X186150D01*
Y186800D01*
X203850D01*
Y185550D01*
X209600D01*
Y166450D01*
X203850D01*
Y165200D01*
X186150D01*
Y166450D01*
D02*
G37*
G36*
X185650Y203950D02*
X179900D01*
Y223050D01*
X185650D01*
Y224300D01*
X203350D01*
Y223050D01*
X209100D01*
Y203950D01*
X203350D01*
Y202700D01*
X185650D01*
Y203950D01*
D02*
G37*
D11*
X279700Y104700D02*
Y121300D01*
X272600Y104700D02*
X279700D01*
X251300D02*
X258400D01*
X251300D02*
Y121300D01*
X253750D01*
Y129750D01*
X277250D01*
Y121300D02*
Y129750D01*
Y121300D02*
X279700D01*
X106200Y101200D02*
X122800D01*
Y94100D02*
Y101200D01*
Y72800D02*
Y79900D01*
X106200Y72800D02*
X122800D01*
X106200D02*
Y75250D01*
X97750D02*
X106200D01*
X97750D02*
Y98750D01*
X106200D01*
Y101200D01*
X180400Y166450D02*
X186150D01*
Y165200D02*
Y166450D01*
Y165200D02*
X203850D01*
Y166450D01*
X209600D01*
Y185550D01*
X203850D02*
X209600D01*
X203850D02*
Y186800D01*
X186150D02*
X203850D01*
X186150Y185550D02*
Y186800D01*
X180400Y185550D02*
X186150D01*
X180400Y166450D02*
Y185550D01*
X86100Y167123D02*
Y185877D01*
X91650D01*
Y187550D01*
X111350D01*
Y185877D02*
Y187550D01*
Y185877D02*
X116900D01*
Y167123D02*
Y185877D01*
X111350Y167123D02*
X116900D01*
X111350Y165450D02*
Y167123D01*
X91650Y165450D02*
X111350D01*
X91650D02*
Y167123D01*
X86100D02*
X91650D01*
X179900Y203950D02*
X185650D01*
Y202700D02*
Y203950D01*
Y202700D02*
X203350D01*
Y203950D01*
X209100D01*
Y223050D01*
X203350D02*
X209100D01*
X203350D02*
Y224300D01*
X185650D02*
X203350D01*
X185650Y223050D02*
Y224300D01*
X179900Y223050D02*
X185650D01*
X179900Y203950D02*
Y223050D01*
D62*
X305500Y173531D02*
Y177469D01*
X303532Y175500D02*
X307469D01*
X303031Y225500D02*
X306968D01*
X305000Y223532D02*
Y227468D01*
X50032Y229500D02*
X53969D01*
X52000Y227532D02*
Y231469D01*
D65*
X322035Y153059D02*
Y195579D01*
X288965D02*
X322035D01*
X288965Y153059D02*
Y195579D01*
Y153059D02*
X322035D01*
X288465Y203059D02*
X321535D01*
X288465D02*
Y245579D01*
X321535D01*
Y203059D02*
Y245579D01*
X31921Y246035D02*
X74441D01*
X31921Y212965D02*
Y246035D01*
Y212965D02*
X74441D01*
Y246035D01*
M02*
