G04*
G04 #@! TF.GenerationSoftware,Altium Limited,Altium Designer,19.1.8 (144)*
G04*
G04 Layer_Color=8388736*
%FSLAX25Y25*%
%MOIN*%
G70*
G01*
G75*
%ADD14R,0.03500X0.06950*%
%ADD15R,0.12400X0.06950*%
%ADD16R,0.06950X0.03500*%
%ADD17R,0.06950X0.12400*%
%ADD24R,0.25210X0.23635*%
%ADD25R,0.12611X0.07099*%
%ADD26R,0.07100X0.02900*%
%ADD27R,0.07400X0.02200*%
%ADD28R,0.09700X0.09100*%
%ADD29R,0.07700X0.10600*%
%ADD30R,0.04000X0.02000*%
%ADD31C,0.06706*%
%ADD32R,0.06706X0.06706*%
%ADD33R,0.07099X0.07099*%
%ADD34C,0.07099*%
%ADD35C,0.06115*%
%ADD36R,0.06115X0.06115*%
%ADD37C,0.06312*%
%ADD38R,0.06115X0.06115*%
%ADD39C,0.05524*%
%ADD40R,0.07099X0.07099*%
%ADD41C,0.05800*%
%ADD42C,0.03800*%
%ADD43C,0.04800*%
D14*
X274600Y125275D02*
D03*
X265500D02*
D03*
X256400D02*
D03*
D15*
X265500Y100725D02*
D03*
D16*
X102225Y96100D02*
D03*
Y87000D02*
D03*
Y77900D02*
D03*
D17*
X126775Y87000D02*
D03*
D24*
X257000Y175000D02*
D03*
Y211500D02*
D03*
D25*
X228732Y166000D02*
D03*
Y184000D02*
D03*
Y220500D02*
D03*
Y202500D02*
D03*
D26*
X205450Y183500D02*
D03*
Y178500D02*
D03*
Y173500D02*
D03*
Y168500D02*
D03*
X184550D02*
D03*
Y173500D02*
D03*
Y178500D02*
D03*
Y183500D02*
D03*
X204950Y221000D02*
D03*
Y216000D02*
D03*
Y211000D02*
D03*
Y206000D02*
D03*
X184050D02*
D03*
Y211000D02*
D03*
Y216000D02*
D03*
Y221000D02*
D03*
D27*
X90400Y184177D02*
D03*
Y181618D02*
D03*
Y179059D02*
D03*
Y176500D02*
D03*
Y173941D02*
D03*
Y171382D02*
D03*
Y168823D02*
D03*
X112600Y168823D02*
D03*
Y171382D02*
D03*
Y173941D02*
D03*
Y176500D02*
D03*
Y179059D02*
D03*
Y181618D02*
D03*
Y184177D02*
D03*
D28*
X101500Y176500D02*
D03*
D29*
X238000Y41500D02*
D03*
X84700Y35937D02*
D03*
D30*
X243700Y45437D02*
D03*
Y43468D02*
D03*
Y41500D02*
D03*
Y39531D02*
D03*
Y37563D02*
D03*
X232300D02*
D03*
Y39531D02*
D03*
Y41500D02*
D03*
Y43468D02*
D03*
Y45437D02*
D03*
X90400Y39874D02*
D03*
Y37905D02*
D03*
Y35937D02*
D03*
Y33968D02*
D03*
Y32000D02*
D03*
X79000D02*
D03*
Y33968D02*
D03*
Y35937D02*
D03*
Y37905D02*
D03*
Y39874D02*
D03*
D31*
X155500Y11000D02*
D03*
X165500D02*
D03*
X175500D02*
D03*
X118000Y20500D02*
D03*
X128000Y10500D02*
D03*
Y20500D02*
D03*
X138000Y10500D02*
D03*
Y20500D02*
D03*
X236000Y242500D02*
D03*
X216500Y20500D02*
D03*
X226500Y10500D02*
D03*
Y20500D02*
D03*
X236500Y10500D02*
D03*
Y20500D02*
D03*
X198500Y242500D02*
D03*
D32*
X185500Y11000D02*
D03*
X118000Y10500D02*
D03*
X246000Y242500D02*
D03*
X216500Y10500D02*
D03*
X208500Y242500D02*
D03*
D33*
X305500Y165657D02*
D03*
X305000Y215657D02*
D03*
D34*
X305500Y185343D02*
D03*
X305000Y235343D02*
D03*
X42158Y229500D02*
D03*
D35*
X152657Y199000D02*
D03*
X200658Y37500D02*
D03*
X46158Y38500D02*
D03*
X115500Y133158D02*
D03*
X151657Y229000D02*
D03*
X143842Y199000D02*
D03*
D36*
X172343D02*
D03*
X220342Y37500D02*
D03*
X65842Y38500D02*
D03*
X171343Y229000D02*
D03*
X124158Y199000D02*
D03*
D37*
X252500Y33500D02*
D03*
X282500D02*
D03*
X69500Y147500D02*
D03*
X39500D02*
D03*
X124000Y167500D02*
D03*
X154000D02*
D03*
X124500Y184500D02*
D03*
X154500D02*
D03*
X101500Y198000D02*
D03*
X71500D02*
D03*
X93000Y158000D02*
D03*
X63000D02*
D03*
X71500Y189000D02*
D03*
X41500D02*
D03*
X291000Y97000D02*
D03*
Y127000D02*
D03*
X303500Y127500D02*
D03*
Y97500D02*
D03*
X71000Y18500D02*
D03*
X101000D02*
D03*
D38*
X115500Y152842D02*
D03*
D39*
X71500Y176000D02*
D03*
X41500D02*
D03*
X238000Y135500D02*
D03*
X208000D02*
D03*
X237000Y70000D02*
D03*
Y100000D02*
D03*
X74500Y77000D02*
D03*
X44500D02*
D03*
X74500Y107000D02*
D03*
X44500D02*
D03*
X258000Y48500D02*
D03*
X288000D02*
D03*
X104500Y40000D02*
D03*
X134500D02*
D03*
D40*
X61843Y229500D02*
D03*
D41*
X246500Y19500D02*
D03*
X87000Y10500D02*
D03*
X80500Y217500D02*
D03*
X85500Y148000D02*
D03*
X143500Y177000D02*
D03*
X277500Y155500D02*
D03*
X137000Y87500D02*
D03*
X226000Y157000D02*
D03*
X184050Y201050D02*
D03*
X217000Y163500D02*
D03*
X216500Y200000D02*
D03*
X184500Y163500D02*
D03*
X162500Y158500D02*
D03*
X88000Y87500D02*
D03*
D42*
X149000Y36500D02*
D03*
X162000D02*
D03*
X147500Y47000D02*
D03*
X160500D02*
D03*
X137000Y62500D02*
D03*
X150000D02*
D03*
X150500Y133500D02*
D03*
X137500D02*
D03*
X263000Y43000D02*
D03*
X195000Y178000D02*
D03*
X91500Y43500D02*
D03*
X245000Y48874D02*
D03*
D43*
X81500Y178000D02*
D03*
M02*
